<svg width="22" height="17" viewBox="0 0 22 17" fill="none" xmlns="http://www.w3.org/2000/svg">
<path d="M10.01 11.2279C9.88889 11.457 9.88889 11.757 9.88889 12.3571V14.2857C9.88889 14.8858 9.88889 15.1858 10.01 15.415C10.1166 15.6166 10.2864 15.7805 10.4956 15.8832C10.7332 16 11.0443 16 11.6667 16H13.6667C14.289 16 14.6001 16 14.8378 15.8832C15.0469 15.7805 15.2168 15.6166 15.3233 15.415C15.4444 15.1858 15.4444 14.8858 15.4444 14.2857V12.3571C15.4444 11.757 15.4444 11.457 15.3233 11.2279C15.2168 11.0262 15.0469 10.8624 14.8378 10.7596C14.6001 10.6429 14.289 10.6429 13.6667 10.6429H11.6667C11.0443 10.6429 10.7332 10.6429 10.4956 10.7596C10.2864 10.8624 10.1166 11.0262 10.01 11.2279ZM10.01 11.2279L6.26511 6.00802M6.55556 3.67857H15.4444M2.77778 6.35714H4.77778C5.40006 6.35714 5.7112 6.35714 5.94888 6.24037C6.15794 6.13764 6.32792 5.97373 6.43446 5.77213C6.55556 5.54294 6.55556 5.24291 6.55556 4.64286V2.71429C6.55556 2.11423 6.55556 1.8142 6.43446 1.58501C6.32792 1.38341 6.15794 1.2195 5.94888 1.11678C5.7112 1 5.40006 1 4.77778 1H2.77778C2.1555 1 1.84436 1 1.60668 1.11678C1.39761 1.2195 1.22763 1.38341 1.1211 1.58501C1 1.8142 1 2.11423 1 2.71429V4.64286C1 5.24291 1 5.54294 1.1211 5.77213C1.22763 5.97373 1.39761 6.13764 1.60668 6.24037C1.84436 6.35714 2.1555 6.35714 2.77778 6.35714ZM17.2222 6.35714H19.2222C19.8446 6.35714 20.1557 6.35714 20.3933 6.24037C20.6024 6.13764 20.7723 5.97373 20.8789 5.77213C21 5.54294 21 5.24291 21 4.64286V2.71429C21 2.11423 21 1.8142 20.8789 1.58501C20.7723 1.38341 20.6024 1.2195 20.3933 1.11678C20.1557 1 19.8446 1 19.2222 1H17.2222C16.5999 1 16.2888 1 16.0511 1.11678C15.842 1.2195 15.6721 1.38341 15.5656 1.58501C15.4444 1.8142 15.4444 2.11423 15.4444 2.71429V4.64286C15.4444 5.24291 15.4444 5.54294 15.5656 5.77213C15.6721 5.97373 15.842 6.13764 16.0511 6.24037C16.2888 6.35714 16.5999 6.35714 17.2222 6.35714Z" stroke="#3E3E3E" stroke-width="2" stroke-linecap="round" stroke-linejoin="round"/>
</svg>
