<svg width="35" height="35" viewBox="0 0 35 35" fill="none" xmlns="http://www.w3.org/2000/svg">
<path d="M24.6579 0.416748H10.3421C4.12377 0.416748 0.416687 4.12383 0.416687 10.3422V24.6409C0.416687 30.8763 4.12377 34.5834 10.3421 34.5834H24.6409C30.8592 34.5834 34.5663 30.8763 34.5663 24.658V10.3422C34.5834 4.12383 30.8763 0.416748 24.6579 0.416748ZM26.2467 13.7417C26.2467 14.7838 25.8025 15.7063 25.0509 16.253C24.5725 16.5947 23.9917 16.7826 23.3767 16.7826C23.0179 16.7826 22.6592 16.7142 22.2834 16.5947L18.3713 15.2963C18.3542 15.2963 18.32 15.2792 18.3029 15.2622V23.0522C18.3029 25.683 16.1504 27.8355 13.5196 27.8355C10.8888 27.8355 8.73627 25.683 8.73627 23.0522C8.73627 20.4213 10.8888 18.2688 13.5196 18.2688C14.3567 18.2688 15.1254 18.508 15.8088 18.8667V11.743V10.7009C15.8088 9.65883 16.2529 8.73633 17.0046 8.18967C17.7734 7.643 18.7813 7.50633 19.7721 7.848L23.6842 9.14633C25.1534 9.64175 26.2638 11.1792 26.2638 12.7167V13.7417H26.2467Z" fill="#3E3E3E"/>
</svg>
