<svg width="50" height="56" viewBox="0 0 50 56" fill="none" xmlns="http://www.w3.org/2000/svg">
<path d="M10 42.2707C5.39688 38.151 2.5 32.1637 2.5 25.5C2.5 13.0736 12.5736 3 25 3C37.4265 3 47.5 13.0736 47.5 25.5C47.5 32.1637 44.603 38.151 40 42.2707M14.506 32.2943C13.237 30.3382 12.5 28.0052 12.5 25.5C12.5 18.5964 18.0964 13 25 13C31.9035 13 37.5 18.5964 37.5 25.5C37.5 28.002 36.765 30.3322 35.499 32.2867M25 53C22.2385 53 20 50.7615 20 48V43C20 40.2385 22.2385 38 25 38C27.7615 38 30 40.2385 30 43V48C30 50.7615 27.7615 53 25 53ZM27.5 25.5C27.5 26.8807 26.3807 28 25 28C23.6193 28 22.5 26.8807 22.5 25.5C22.5 24.1193 23.6193 23 25 23C26.3807 23 27.5 24.1193 27.5 25.5Z" stroke="#3E3E3E" stroke-width="5" stroke-linecap="round" stroke-linejoin="round"/>
</svg>
