<svg width="24" height="24" viewBox="0 0 24 24" fill="none" xmlns="http://www.w3.org/2000/svg">
<g clip-path="url(#clip0_45_1154)">
<path d="M6 20.106C6 16.323 10.5 17.08 10.5 15.567C10.5503 15.0297 10.4047 14.4924 10.09 14.054C9.73113 13.7137 9.44843 13.3013 9.26055 12.8438C9.07267 12.3864 8.98387 11.8943 9 11.4C8.95117 10.5523 9.23892 9.71964 9.80069 9.08296C10.3625 8.44629 11.1528 8.0571 12 8C12.8472 8.0571 13.6375 8.44629 14.1993 9.08296C14.7611 9.71964 15.0488 10.5523 15 11.4C15.018 11.8957 14.9286 12.3895 14.7378 12.8474C14.5471 13.3054 14.2596 13.7166 13.895 14.053C13.593 14.4972 13.4535 15.0319 13.5 15.567C13.5 17.08 18 16.324 18 20.107C18 20.107 16.805 21.001 12 21.001C7.195 21.001 6 20.106 6 20.106Z" stroke="#3E3E3E" stroke-width="2" stroke-miterlimit="10"/>
<path d="M5.486 15.967C4.917 15.941 4.415 15.902 3.974 15.853C2.93889 15.8325 1.92196 15.577 1 15.106C1 11.323 5.5 12.08 5.5 10.567C5.5503 10.0297 5.40468 9.49237 5.09 9.054C4.73113 8.71374 4.44843 8.30128 4.26055 7.84382C4.07267 7.38636 3.98387 6.89428 4 6.4C3.95117 5.55232 4.23892 4.71964 4.80069 4.08296C5.36246 3.44629 6.15284 3.0571 7 3C7.84716 3.0571 8.63754 3.44629 9.19931 4.08296C9.76108 4.71964 10.0488 5.55232 10 6.4" stroke="#3E3E3E" stroke-width="2" stroke-miterlimit="10"/>
<path d="M18.514 15.967C19.083 15.941 19.585 15.902 20.026 15.853C21.0611 15.8325 22.0781 15.577 23 15.106C23 11.323 18.5 12.08 18.5 10.567C18.4497 10.0297 18.5953 9.49237 18.91 9.054C19.2689 8.71374 19.5516 8.30128 19.7395 7.84382C19.9274 7.38636 20.0162 6.89428 20 6.4C20.0489 5.55232 19.7611 4.71964 19.1993 4.08296C18.6376 3.44629 17.8472 3.0571 17 3C16.1529 3.0571 15.3625 3.44629 14.8007 4.08296C14.2389 4.71964 13.9512 5.55232 14 6.4" stroke="#3E3E3E" stroke-width="2" stroke-miterlimit="10"/>
</g>
<defs>
<clipPath id="clip0_45_1154">
<rect width="24" height="24" fill="white"/>
</clipPath>
</defs>
</svg>
